<svg width="163" height="162" viewBox="0 0 163 162" fill="none" xmlns="http://www.w3.org/2000/svg">
<rect width="163" height="162" rx="32" fill="black"/>
<path d="M99.0508 119.981L103.456 112.344L75.78 96.3641L71.3751 104C74.4377 105.769 75.4907 109.684 73.7222 112.746L71.6002 116.412C69.8317 119.474 65.9171 120.527 62.8545 118.759L58.4496 126.395L86.1253 142.375L90.5302 134.739C87.4676 132.97 86.4146 129.048 88.1831 125.985L90.2971 122.32C92.0655 119.257 95.9882 118.204 99.0508 119.972V119.981Z" fill="#DAFD60"/>
<path d="M105.104 43.8355C109.493 36.2394 106.889 26.5211 99.2924 22.1322C91.6963 17.7433 81.978 20.3477 77.5892 27.9439L72.6456 36.5046C76.9943 39.0125 78.1116 44.792 75.0089 48.7388L48 79.1922L75.5149 95.0757L88.3765 56.4636C90.2494 51.8014 95.8119 49.8803 100.161 52.3962L105.104 43.8355Z" fill="white"/>
</svg>
